<?xml version="1.0" encoding="utf-8"?>
<svg viewBox="0 0 1078.99 1105.45" xmlns="http://www.w3.org/2000/svg" style="height: 100%; width: 100%; background: none; shape-rendering: auto; animation-play-state: running; animation-delay: 0s;" width="230px" height="230px"><g class="ldl-scale" style="transform-origin: 50% 50%; transform: rotate(0deg) scale(0.67, 0.67); animation-play-state: running; animation-delay: 0s;"><g class="ldl-ani" style="transform-origin: 539.495px 552.725px; transform: rotate(0deg); animation: 1.23457s linear 0s infinite normal forwards running cycle-36b69e93-e762-4ac9-8192-a097e7f69826;"><defs style="animation-play-state: running; animation-delay: 0s;"><style style="animation-play-state: running; animation-delay: 0s;">.cls-1{fill:#9c2571;}.cls-1,.cls-2,.cls-3,.cls-4,.cls-5,.cls-6{fill-rule:evenodd;}.cls-2{fill:#3169b2;}.cls-3{fill:#fab819;}.cls-4{fill:#744a9d;}.cls-5{fill:#43b557;}.cls-6{fill:#e53331;}</style></defs><title style="animation-play-state: running; animation-delay: 0s;">logocircle</title><g class="ldl-layer" style="animation-play-state: running; animation-delay: 0s;"><g class="ldl-ani" style=""><g data-name="Layer 2" id="Layer_2" style="animation-play-state: running; animation-delay: 0s;"><g class="ldl-layer" style="animation-play-state: running; animation-delay: 0s;"><g class="ldl-ani" style="animation-play-state: running; animation-delay: 0s;"><g data-name="Layer 1" id="Layer_1-2" style="animation-play-state: running; animation-delay: 0s;"><g class="ldl-layer" style="animation-play-state: running; animation-delay: 0s;"><g class="ldl-ani" style=""><path d="M185.52,490.76C143.16,417,103.3,348.56,65.17,279.21,61.8,273,67.64,259,73,251.21c61.07-87.94,145.9-145.66,243.25-185.81C360,47.36,405.58,34,450.35,18.52Q453.22,22,456,25.37C366.84,178.84,277.63,332.28,185.52,490.76" class="cls-1" style="fill: rgb(156, 37, 113); animation-play-state: running; animation-delay: 0s;"></path></g></g><g class="ldl-layer" style="animation-play-state: running; animation-delay: 0s;"><g class="ldl-ani" style=""><path d="M1038,749.39c-88.91-152.86-177.77-305.75-268.66-462,10.2-.76,17.46-1.76,24.71-1.76,66.73.09,133.56,1.73,200.24-.14,24.44-.72,36,9.31,45.15,29.16,37.07,80.13,44.82,165,36.6,251.09-5.94,61.8-18.74,123-28.49,184.4l-9.55-.7" class="cls-2" style="fill: rgb(49, 105, 178); animation-play-state: running; animation-delay: 0s;"></path></g></g><g class="ldl-layer" style="animation-play-state: running; animation-delay: 0s;"><g class="ldl-ani" style=""><path d="M655.58,890.64c-42.06,71.5-81.92,140-123.07,207.77-3.18,5.23-15.45,7.52-23.21,7-162.91-11.75-286.22-97.14-397.22-214.73Z" class="cls-3" style="fill: rgb(250, 184, 25); animation-play-state: running; animation-delay: 0s;"></path></g></g><g class="ldl-layer" style="animation-play-state: running; animation-delay: 0s;"><g class="ldl-ani" style=""><path d="M418.45,214.15C459.39,144.5,497.93,78.21,537.64,12.61c4-6.55,15.25-13.18,22.51-12.57C718.82,14.2,847.72,87.11,954.75,202.37c2.53,2.73,4.17,6.28,7.76,11.78Zm498.06-18.39c-1-4.55-.74-7-1.82-8-96.91-95-210.44-155.92-347.29-168.4-5.52-.5-14.24,2.73-16.86,7-33.22,55-65.59,110.39-100.37,169.43Z" class="cls-4" style="fill: rgb(116, 74, 157); animation-play-state: running; animation-delay: 0s;"></path></g></g><g class="ldl-layer" style="animation-play-state: running; animation-delay: 0s;"><g class="ldl-ani" style=""><path d="M889.81,615.8c41.44,72,81.07,139.94,119.25,208.64,3.33,6,.27,19.33-4.61,25.49-98.81,124.91-223,209.18-387.88,236.32,91.21-157,180.8-311.27,273.24-470.45m0,36.34C811,787.73,733.1,921.73,653.11,1059.31,799.63,1028.08,906,944.67,994.26,833.46c-35-60.63-69.23-120.14-104.48-181.32" class="cls-5" style="fill: rgb(67, 181, 87); animation-play-state: running; animation-delay: 0s;"></path></g></g><g class="ldl-layer" style="animation-play-state: running; animation-delay: 0s;"><g class="ldl-ani" style=""><path d="M307.45,824.09c-83.54,0-162.85.52-242.16-.91-7.25-.15-17.51-11.75-21-20.24C11.51,722.64-5.47,638.65,1.58,552.15c5.22-64,18.21-127.31,27.73-190.91,2.61-.58,5.22-1.19,7.87-1.81L307.45,824.09M42.55,403.75C14.88,517.37,7.83,626.17,39.44,735.41c20.45,70.7,20.36,70.7,92.56,70.7H276.57c-78.9-135.62-155.24-266.89-234-402.36" class="cls-6" style="fill: rgb(229, 51, 49); animation-play-state: running; animation-delay: 0s;"></path></g></g></g></g></g></g></g></g></g></g><style id="cycle-36b69e93-e762-4ac9-8192-a097e7f69826" data-anikit="">@keyframes cycle-36b69e93-e762-4ac9-8192-a097e7f69826
{
  0% {
    animation-timing-function: cubic-bezier(0.3333,0.3333,0.6667,0.6667);
    transform: rotate(0deg);
  }
  100% {
    transform: rotate(360deg);
  }
}</style><!-- [ldio] generated by https://loading.io/ --></svg>